<svg xmlns="http://www.w3.org/2000/svg" viewBox="0 0 29.178 29.178">
	<path d="M19.453,2.242c0-0.893-0.725-1.621-1.62-1.621H1.622C0.727,0.621,0,1.35,0,2.242v17.139c0,0.898,0.727,1.623,1.622,1.623
		h5.75V7.928c0-0.893,0.725-1.621,1.619-1.621h10.462V2.242z"/>
	<path d="M27.559,8.172H11.347c-0.896,0-1.619,0.729-1.619,1.621v17.141c0,0.896,0.724,1.623,1.619,1.623h16.212
		c0.896,0,1.619-0.727,1.619-1.623V9.793C29.178,8.9,28.454,8.172,27.559,8.172z M27.206,25.195c0,0.713-0.579,1.293-1.29,1.293
		H12.992c-0.714,0-1.29-0.58-1.29-1.293V11.531c0-0.709,0.576-1.289,1.29-1.289h12.924c0.711,0,1.29,0.58,1.29,1.289
		C27.206,11.531,27.206,25.195,27.206,25.195z"/>
</svg>
