<svg xmlns="http://www.w3.org/2000/svg" viewBox="0 0 415.977 415.977">

	<path d="M403.723,1.349h-167.41c-6.767,0-12.254,5.486-12.254,12.254V80.14H17.543C7.854,80.14,0,87.994,0,97.683v299.402
		c0,9.688,7.854,17.543,17.543,17.543h299.402c9.689,0,17.543-7.854,17.543-17.543V193.267h69.234
		c6.768,0,12.254-5.486,12.254-12.254V13.603C415.977,6.836,410.49,1.349,403.723,1.349z M299.402,379.542H35.086V115.226h188.972
		v65.787c0,6.768,5.487,12.254,12.255,12.254H299.4v186.275H299.402z M380.977,158.267H259.059V36.349h121.918V158.267z"/>
	<path d="M174.857,273.12l97.249-97.246c-5.537-4.021-10.785-8.489-16.072-12.793c-6.342-5.164-12.469-11.153-16.299-18.477
		L143.04,241.3l-18.865-18.865c-1.896-1.896-4.656-2.634-7.244-1.941c-2.588,0.693-4.609,2.715-5.303,5.305l-25.449,95
		c-0.693,2.588,0.045,5.35,1.939,7.244c1.426,1.425,3.342,2.195,5.305,2.195c0.646,0,1.299-0.084,1.939-0.256l95-25.447
		c2.59-0.693,4.611-2.715,5.305-5.303c0.694-2.589-0.047-5.351-1.941-7.246L174.857,273.12z"/>
</svg>
