<svg xmlns="http://www.w3.org/2000/svg" viewBox="0 0 95.425003 95.667">
	<g transform="translate(-.121)">
		<path d="m39.173 72.344 39.447-22.777c0.619-0.356 1-1.018 1-1.731s-0.381-1.375-1-1.732l-39.447-22.78c-0.619-0.357-1.381-0.357-2 0s-1 1.018-1 1.732v10.605h-34.052c-1.104 0-2 0.896-2 2v20.344c0 1.104 0.896 2 2 2h34.053v10.604c0 0.716 0.381 1.375 1 1.732 0.31 0.18 0.655 0.268 1 0.268s0.69-0.088 0.999-0.265z"/>
		<path d="m80.775 0h-40.749c-1.104 0-2 0.896-2 2v6c0 1.104 0.896 2 2 2h40.749c2.632 0 4.771 2.141 4.771 4.771v66.125c0 2.631-2.141 4.771-4.771 4.771h-40.749c-1.104 0-2 0.896-2 2v6c0 1.104 0.896 2 2 2h40.749c8.146 0 14.771-6.627 14.771-14.771v-66.124c0-8.145-6.626-14.772-14.771-14.772z"/>
	</g>
</svg>
