<svg xmlns="http://www.w3.org/2000/svg" viewBox="0 0 96.943999 93.623">
	<g transform="translate(0,-1.66)">
		<path d="m61.168 83.92h-49.804v-70.895h49.806c1.104 0 2-0.896 2-2v-7.365c0-1.104-0.896-2-2-2h-59.17c-1.104 0-2 0.896-2 2v89.623c0 1.104 0.896 2 2 2h59.168c1.105 0 2-0.896 2-2v-7.363c0-1.106-0.894-2-2-2z"/>
		<path d="m96.355 47.058-26.922-26.92c-0.75-0.751-2.078-0.75-2.828 0l-6.387 6.388c-0.781 0.781-0.781 2.047 0 2.828l12.16 12.162h-52.641c-1.104 0-2 0.896-2 2v9.912c0 1.104 0.896 2 2 2h52.644l-12.16 12.162c-0.781 0.781-0.781 2.047 0 2.828l6.387 6.389c0.375 0.375 0.885 0.586 1.414 0.586 0.531 0 1.039-0.211 1.414-0.586l26.922-26.92c0.375-0.375 0.586-0.885 0.586-1.414-0.001-0.532-0.214-1.04-0.589-1.415z"/>
	</g>
</svg>
